<mxfile host="app.diagrams.net" modified="2024-05-20T12:48:29.567Z" agent="Mozilla/5.0 (Windows NT 10.0; Win64; x64) AppleWebKit/537.36 (KHTML, like Gecko) Chrome/125.0.0.0 Safari/537.36" etag="YcB_t0Hi56j9_2NWu77L" version="24.4.4" type="google">
  <diagram name="Page-1" id="e7e014a7-5840-1c2e-5031-d8a46d1fe8dd">
    <mxGraphModel grid="0" page="0" gridSize="10" guides="1" tooltips="1" connect="1" arrows="1" fold="1" pageScale="1" pageWidth="1169" pageHeight="826" background="none" math="0" shadow="0">
      <root>
        <mxCell id="0" />
        <mxCell id="1" parent="0" />
        <mxCell id="2" value="購入ユーザー" style="swimlane;whiteSpace=wrap;startSize=23;" vertex="1" parent="1">
          <mxGeometry x="160.5" y="39" width="280" height="721" as="geometry" />
        </mxCell>
        <mxCell id="jm9fpF-__gH5ew6w-gA--67" style="edgeStyle=orthogonalEdgeStyle;rounded=0;orthogonalLoop=1;jettySize=auto;html=1;entryX=0.5;entryY=0;entryDx=0;entryDy=0;" edge="1" parent="2" source="5" target="jm9fpF-__gH5ew6w-gA--20">
          <mxGeometry relative="1" as="geometry" />
        </mxCell>
        <mxCell id="5" value="" style="ellipse;shape=startState;fillColor=#000000;strokeColor=none;" vertex="1" parent="2">
          <mxGeometry x="124" y="45" width="30" height="30" as="geometry" />
        </mxCell>
        <mxCell id="jm9fpF-__gH5ew6w-gA--20" value="&lt;span style=&quot;font-size: 11px;&quot;&gt;購入履歴画面に&lt;/span&gt;&lt;div&gt;&lt;span style=&quot;font-size: 11px;&quot;&gt;アクセス&lt;/span&gt;&lt;/div&gt;" style="rounded=1;whiteSpace=wrap;html=1;arcSize=40;" vertex="1" parent="2">
          <mxGeometry x="79" y="121" width="120" height="40" as="geometry" />
        </mxCell>
        <mxCell id="x9BPm8IbPI2Nqj2oKmfH-38" style="edgeStyle=orthogonalEdgeStyle;rounded=0;orthogonalLoop=1;jettySize=auto;html=1;exitX=0.5;exitY=1;exitDx=0;exitDy=0;entryX=0.504;entryY=0.553;entryDx=0;entryDy=0;entryPerimeter=0;" edge="1" parent="2" source="x9BPm8IbPI2Nqj2oKmfH-19" target="x9BPm8IbPI2Nqj2oKmfH-27">
          <mxGeometry relative="1" as="geometry">
            <mxPoint x="139.5" y="321" as="targetPoint" />
            <Array as="points">
              <mxPoint x="140" y="261" />
              <mxPoint x="140" y="261" />
            </Array>
          </mxGeometry>
        </mxCell>
        <mxCell id="x9BPm8IbPI2Nqj2oKmfH-19" value="&lt;font style=&quot;font-size: 11px;&quot;&gt;購入履歴画面を確認&lt;/font&gt;" style="rounded=1;whiteSpace=wrap;html=1;arcSize=40;" vertex="1" parent="2">
          <mxGeometry x="80" y="201" width="120" height="40" as="geometry" />
        </mxCell>
        <mxCell id="x9BPm8IbPI2Nqj2oKmfH-23" value="&lt;font style=&quot;font-size: 11px;&quot;&gt;注文詳細ボタンを押下&lt;/font&gt;" style="rounded=1;whiteSpace=wrap;html=1;arcSize=40;" vertex="1" parent="2">
          <mxGeometry x="149.5" y="321" width="120" height="40" as="geometry" />
        </mxCell>
        <mxCell id="x9BPm8IbPI2Nqj2oKmfH-27" value="" style="line;strokeWidth=1;fillColor=none;align=left;verticalAlign=middle;spacingTop=-1;spacingLeft=3;spacingRight=3;rotatable=0;labelPosition=right;points=[];portConstraint=eastwest;strokeColor=inherit;fontStyle=0" vertex="1" parent="2">
          <mxGeometry x="38.5" y="277" width="201" height="8" as="geometry" />
        </mxCell>
        <mxCell id="x9BPm8IbPI2Nqj2oKmfH-30" value="" style="line;strokeWidth=1;fillColor=none;align=left;verticalAlign=middle;spacingTop=-1;spacingLeft=3;spacingRight=3;rotatable=0;labelPosition=right;points=[];portConstraint=eastwest;strokeColor=inherit;fontStyle=0" vertex="1" parent="2">
          <mxGeometry x="37.5" y="437" width="201" height="8" as="geometry" />
        </mxCell>
        <mxCell id="x9BPm8IbPI2Nqj2oKmfH-31" value="" style="endArrow=classic;html=1;rounded=0;entryX=0.159;entryY=0.5;entryDx=0;entryDy=0;exitX=0.153;exitY=0.495;exitDx=0;exitDy=0;exitPerimeter=0;entryPerimeter=0;" edge="1" parent="2" source="x9BPm8IbPI2Nqj2oKmfH-27" target="x9BPm8IbPI2Nqj2oKmfH-30">
          <mxGeometry width="50" height="50" relative="1" as="geometry">
            <mxPoint x="69.4" y="288" as="sourcePoint" />
            <mxPoint x="69.5" y="321" as="targetPoint" />
          </mxGeometry>
        </mxCell>
        <mxCell id="x9BPm8IbPI2Nqj2oKmfH-32" value="" style="endArrow=classic;html=1;rounded=0;entryX=0.5;entryY=0;entryDx=0;entryDy=0;exitX=0.851;exitY=0.486;exitDx=0;exitDy=0;exitPerimeter=0;" edge="1" parent="2" source="x9BPm8IbPI2Nqj2oKmfH-27">
          <mxGeometry width="50" height="50" relative="1" as="geometry">
            <mxPoint x="209" y="284" as="sourcePoint" />
            <mxPoint x="210" y="321" as="targetPoint" />
          </mxGeometry>
        </mxCell>
        <mxCell id="x9BPm8IbPI2Nqj2oKmfH-44" style="edgeStyle=orthogonalEdgeStyle;rounded=0;orthogonalLoop=1;jettySize=auto;html=1;entryX=0.5;entryY=0;entryDx=0;entryDy=0;" edge="1" parent="2" source="x9BPm8IbPI2Nqj2oKmfH-41" target="x9BPm8IbPI2Nqj2oKmfH-43">
          <mxGeometry relative="1" as="geometry" />
        </mxCell>
        <mxCell id="x9BPm8IbPI2Nqj2oKmfH-41" value="&lt;span style=&quot;font-size: 11px;&quot;&gt;商品詳細画面を確認&lt;/span&gt;" style="rounded=1;whiteSpace=wrap;html=1;arcSize=40;" vertex="1" parent="2">
          <mxGeometry x="79" y="560.5" width="120" height="40" as="geometry" />
        </mxCell>
        <mxCell id="x9BPm8IbPI2Nqj2oKmfH-43" value="" style="ellipse;html=1;shape=endState;fillColor=#000000;strokeColor=default;" vertex="1" parent="2">
          <mxGeometry x="124" y="646" width="30" height="30" as="geometry" />
        </mxCell>
        <mxCell id="3" value="ECサイト画面" style="swimlane;whiteSpace=wrap;startSize=23;" vertex="1" parent="1">
          <mxGeometry x="441.5" y="39" width="280" height="721" as="geometry" />
        </mxCell>
        <mxCell id="x9BPm8IbPI2Nqj2oKmfH-5" value="購入履歴情報を取得&lt;div&gt;するAPIをリクエスト&lt;/div&gt;" style="rounded=1;whiteSpace=wrap;html=1;arcSize=40;" vertex="1" parent="3">
          <mxGeometry x="78.5" y="121" width="120" height="40" as="geometry" />
        </mxCell>
        <mxCell id="x9BPm8IbPI2Nqj2oKmfH-17" value="購入履歴画面を表示" style="rounded=1;whiteSpace=wrap;html=1;arcSize=40;" vertex="1" parent="3">
          <mxGeometry x="78.5" y="201" width="120" height="40" as="geometry" />
        </mxCell>
        <mxCell id="x9BPm8IbPI2Nqj2oKmfH-21" value="&lt;font style=&quot;font-size: 11px;&quot;&gt;注文詳細画面を表示&lt;/font&gt;" style="rounded=1;whiteSpace=wrap;html=1;arcSize=40;" vertex="1" parent="3">
          <mxGeometry x="78.5" y="321" width="120" height="40" as="geometry" />
        </mxCell>
        <mxCell id="x9BPm8IbPI2Nqj2oKmfH-39" value="&lt;span style=&quot;font-size: 11px;&quot;&gt;商品詳細画面を表示&lt;/span&gt;" style="rounded=1;whiteSpace=wrap;html=1;arcSize=40;" vertex="1" parent="3">
          <mxGeometry x="78.5" y="481" width="120" height="40" as="geometry" />
        </mxCell>
        <mxCell id="jm9fpF-__gH5ew6w-gA--10" value="APIサーバー" style="swimlane;whiteSpace=wrap;startSize=23;" vertex="1" parent="1">
          <mxGeometry x="721.5" y="39" width="280" height="721" as="geometry" />
        </mxCell>
        <mxCell id="x9BPm8IbPI2Nqj2oKmfH-9" value="購入履歴情報を取得" style="rounded=1;whiteSpace=wrap;html=1;arcSize=40;" vertex="1" parent="jm9fpF-__gH5ew6w-gA--10">
          <mxGeometry x="80" y="121" width="120" height="40" as="geometry" />
        </mxCell>
        <mxCell id="x9BPm8IbPI2Nqj2oKmfH-14" value="購入履歴情報を返却" style="rounded=1;whiteSpace=wrap;html=1;arcSize=40;" vertex="1" parent="jm9fpF-__gH5ew6w-gA--10">
          <mxGeometry x="79" y="201" width="120" height="40" as="geometry" />
        </mxCell>
        <mxCell id="jm9fpF-__gH5ew6w-gA--15" value="データベース" style="swimlane;whiteSpace=wrap;startSize=23;" vertex="1" parent="1">
          <mxGeometry x="1001.5" y="39" width="280" height="721" as="geometry" />
        </mxCell>
        <mxCell id="x9BPm8IbPI2Nqj2oKmfH-15" style="edgeStyle=orthogonalEdgeStyle;rounded=0;orthogonalLoop=1;jettySize=auto;html=1;entryX=0.5;entryY=0;entryDx=0;entryDy=0;" edge="1" parent="jm9fpF-__gH5ew6w-gA--15" source="x9BPm8IbPI2Nqj2oKmfH-10" target="x9BPm8IbPI2Nqj2oKmfH-13">
          <mxGeometry relative="1" as="geometry" />
        </mxCell>
        <mxCell id="x9BPm8IbPI2Nqj2oKmfH-10" value="購入履歴情報を検索" style="rounded=1;whiteSpace=wrap;html=1;arcSize=40;" vertex="1" parent="jm9fpF-__gH5ew6w-gA--15">
          <mxGeometry x="79" y="121" width="120" height="40" as="geometry" />
        </mxCell>
        <mxCell id="x9BPm8IbPI2Nqj2oKmfH-13" value="購入履歴情報を返却" style="rounded=1;whiteSpace=wrap;html=1;arcSize=40;" vertex="1" parent="jm9fpF-__gH5ew6w-gA--15">
          <mxGeometry x="79" y="201" width="120" height="40" as="geometry" />
        </mxCell>
        <mxCell id="x9BPm8IbPI2Nqj2oKmfH-8" style="edgeStyle=orthogonalEdgeStyle;rounded=0;orthogonalLoop=1;jettySize=auto;html=1;entryX=0;entryY=0.5;entryDx=0;entryDy=0;" edge="1" parent="1" source="jm9fpF-__gH5ew6w-gA--20" target="x9BPm8IbPI2Nqj2oKmfH-5">
          <mxGeometry relative="1" as="geometry" />
        </mxCell>
        <mxCell id="x9BPm8IbPI2Nqj2oKmfH-11" style="edgeStyle=orthogonalEdgeStyle;rounded=0;orthogonalLoop=1;jettySize=auto;html=1;entryX=0;entryY=0.5;entryDx=0;entryDy=0;" edge="1" parent="1" source="x9BPm8IbPI2Nqj2oKmfH-5" target="x9BPm8IbPI2Nqj2oKmfH-9">
          <mxGeometry relative="1" as="geometry" />
        </mxCell>
        <mxCell id="x9BPm8IbPI2Nqj2oKmfH-12" style="edgeStyle=orthogonalEdgeStyle;rounded=0;orthogonalLoop=1;jettySize=auto;html=1;entryX=0;entryY=0.5;entryDx=0;entryDy=0;" edge="1" parent="1" source="x9BPm8IbPI2Nqj2oKmfH-9" target="x9BPm8IbPI2Nqj2oKmfH-10">
          <mxGeometry relative="1" as="geometry" />
        </mxCell>
        <mxCell id="x9BPm8IbPI2Nqj2oKmfH-16" style="edgeStyle=orthogonalEdgeStyle;rounded=0;orthogonalLoop=1;jettySize=auto;html=1;entryX=1;entryY=0.5;entryDx=0;entryDy=0;" edge="1" parent="1" source="x9BPm8IbPI2Nqj2oKmfH-13" target="x9BPm8IbPI2Nqj2oKmfH-14">
          <mxGeometry relative="1" as="geometry" />
        </mxCell>
        <mxCell id="x9BPm8IbPI2Nqj2oKmfH-18" style="edgeStyle=orthogonalEdgeStyle;rounded=0;orthogonalLoop=1;jettySize=auto;html=1;entryX=1;entryY=0.5;entryDx=0;entryDy=0;" edge="1" parent="1" source="x9BPm8IbPI2Nqj2oKmfH-14" target="x9BPm8IbPI2Nqj2oKmfH-17">
          <mxGeometry relative="1" as="geometry" />
        </mxCell>
        <mxCell id="x9BPm8IbPI2Nqj2oKmfH-20" style="edgeStyle=orthogonalEdgeStyle;rounded=0;orthogonalLoop=1;jettySize=auto;html=1;entryX=1;entryY=0.5;entryDx=0;entryDy=0;" edge="1" parent="1" source="x9BPm8IbPI2Nqj2oKmfH-17" target="x9BPm8IbPI2Nqj2oKmfH-19">
          <mxGeometry relative="1" as="geometry" />
        </mxCell>
        <mxCell id="x9BPm8IbPI2Nqj2oKmfH-34" style="edgeStyle=orthogonalEdgeStyle;rounded=0;orthogonalLoop=1;jettySize=auto;html=1;entryX=0;entryY=0.5;entryDx=0;entryDy=0;" edge="1" parent="1" source="x9BPm8IbPI2Nqj2oKmfH-23" target="x9BPm8IbPI2Nqj2oKmfH-21">
          <mxGeometry relative="1" as="geometry" />
        </mxCell>
        <mxCell id="x9BPm8IbPI2Nqj2oKmfH-35" style="edgeStyle=orthogonalEdgeStyle;rounded=0;orthogonalLoop=1;jettySize=auto;html=1;" edge="1" parent="1" source="x9BPm8IbPI2Nqj2oKmfH-21">
          <mxGeometry relative="1" as="geometry">
            <mxPoint x="360" y="480" as="targetPoint" />
            <Array as="points">
              <mxPoint x="580.5" y="440" />
              <mxPoint x="360.5" y="440" />
            </Array>
          </mxGeometry>
        </mxCell>
        <mxCell id="x9BPm8IbPI2Nqj2oKmfH-40" style="edgeStyle=orthogonalEdgeStyle;rounded=0;orthogonalLoop=1;jettySize=auto;html=1;entryX=0;entryY=0.5;entryDx=0;entryDy=0;" edge="1" parent="1" source="x9BPm8IbPI2Nqj2oKmfH-36" target="x9BPm8IbPI2Nqj2oKmfH-39">
          <mxGeometry relative="1" as="geometry" />
        </mxCell>
        <mxCell id="x9BPm8IbPI2Nqj2oKmfH-36" value="&lt;span style=&quot;font-size: 11px;&quot;&gt;商品の画像リンクを&lt;/span&gt;&lt;div&gt;&lt;span style=&quot;font-size: 11px;&quot;&gt;押下&lt;/span&gt;&lt;/div&gt;" style="rounded=1;whiteSpace=wrap;html=1;arcSize=40;" vertex="1" parent="1">
          <mxGeometry x="239.5" y="520" width="120" height="40" as="geometry" />
        </mxCell>
        <mxCell id="x9BPm8IbPI2Nqj2oKmfH-37" style="edgeStyle=orthogonalEdgeStyle;rounded=0;orthogonalLoop=1;jettySize=auto;html=1;entryX=0.5;entryY=0;entryDx=0;entryDy=0;exitX=0.501;exitY=0.485;exitDx=0;exitDy=0;exitPerimeter=0;" edge="1" parent="1" target="x9BPm8IbPI2Nqj2oKmfH-36">
          <mxGeometry relative="1" as="geometry">
            <mxPoint x="270" y="510" as="targetPoint" />
            <mxPoint x="298.5" y="480" as="sourcePoint" />
            <Array as="points">
              <mxPoint x="298.5" y="510" />
              <mxPoint x="298.5" y="510" />
            </Array>
          </mxGeometry>
        </mxCell>
        <mxCell id="x9BPm8IbPI2Nqj2oKmfH-42" style="edgeStyle=orthogonalEdgeStyle;rounded=0;orthogonalLoop=1;jettySize=auto;html=1;entryX=1;entryY=0.5;entryDx=0;entryDy=0;" edge="1" parent="1" source="x9BPm8IbPI2Nqj2oKmfH-39" target="x9BPm8IbPI2Nqj2oKmfH-41">
          <mxGeometry relative="1" as="geometry">
            <Array as="points">
              <mxPoint x="580" y="620" />
            </Array>
          </mxGeometry>
        </mxCell>
      </root>
    </mxGraphModel>
  </diagram>
</mxfile>
